# xmcd
#
# Track frame offsets:
#	150
#	9953
#	20036
#	34140
#	42787
#	54671
#	63744
#	76510
#	90112
#	101516
#	113028
#	124401
#
# Disc length: 1806 seconds
#
# Revision: 1
# Processed by: cddbd v1.5.2PL0 Copyright (c) Steve Scherf et al.
# Submitted via: audiograbber 1.83.01
#
DISCID=8b070c0c
DTITLE=Buddy Williams - A Breath Of Country Air
DYEAR=1971
DGENRE=Country
TTITLE0=A Breath Of Country Air
TTITLE1=Things Treasured The Most
TTITLE2=Only A Bushman Would Know
TTITLE3=The Heart Of The Golden West
TTITLE4=The Drovers Days Are Over
TTITLE5=Timber Country
TTITLE6=The Overland Corner Song
TTITLE7=The Scrum Bull
TTITLE8=Oh What A Beautiful Day
TTITLE9=Seven Years Is A Big Price Pay
TTITLE10=Take The World By The Tail
TTITLE11=Big Rigs And Country Music
EXTD=
EXTT0=
EXTT1=
EXTT2=
EXTT3=
EXTT4=
EXTT5=
EXTT6=
EXTT7=
EXTT8=
EXTT9=
EXTT10=
EXTT11=
PLAYORDER=
